<?xml version="1.0" standalone="no"?>
<!DOCTYPE svg PUBLIC "-//W3C//DTD SVG 20010904//EN"
 "http://www.w3.org/TR/2001/REC-SVG-20010904/DTD/svg10.dtd">
<svg version="1.0" xmlns="http://www.w3.org/2000/svg"
 width="980.000000pt" height="980.000000pt" viewBox="0 0 980.000000 980.000000"
 preserveAspectRatio="xMidYMid meet">
<metadata>
Created by potrace 1.14, written by Peter Selinger 2001-2017
</metadata>
<g transform="translate(0.000000,980.000000) scale(0.100000,-0.100000)"
fill="#000000" stroke="none">
<path d="M1829 9694 c-1 -43 -11 -122 -24 -209 -11 -72 -40 -194 -67 -280 -17
-55 -31 -104 -33 -110 -1 -5 -7 -23 -15 -40 -7 -16 -16 -39 -20 -50 -36 -94
-120 -249 -185 -340 -66 -94 -165 -203 -246 -270 -49 -40 -180 -125 -193 -125
-8 0 -16 -4 -18 -10 -8 -24 -340 -137 -408 -138 -8 -1 -24 -3 -35 -6 -11 -2
-31 -5 -44 -5 -49 -2 -8 -14 89 -26 169 -22 461 -146 561 -237 10 -10 22 -18
26 -18 4 0 16 -9 28 -20 11 -12 43 -42 70 -68 41 -38 109 -116 163 -187 142
-185 276 -528 326 -830 16 -96 20 -135 25 -199 2 -30 14 -10 17 26 2 38 12
112 18 148 3 14 7 41 10 60 3 19 17 82 32 140 31 128 30 122 36 140 3 8 16 44
29 80 48 138 119 281 199 400 55 80 75 106 153 190 167 180 440 327 682 367
40 7 60 11 60 13 0 1 17 3 37 4 40 2 65 16 32 17 -84 3 -270 50 -382 97 -83
34 -236 118 -264 144 -7 7 -29 25 -48 39 -46 35 -155 143 -188 188 -15 20 -37
47 -49 61 -13 14 -23 28 -23 32 0 3 -12 20 -26 37 -14 17 -22 31 -18 31 4 0 0
8 -9 18 -36 40 -175 352 -192 432 -2 8 -15 60 -28 115 -22 90 -36 152 -42 195
-10 65 -16 113 -19 158 -5 60 -15 82 -17 36z"/>
<path d="M7969 8269 c-1 -8 -3 -23 -5 -34 -2 -11 -6 -38 -9 -60 -3 -22 -13
-67 -21 -100 -9 -33 -17 -64 -18 -70 -6 -29 -42 -117 -68 -170 -92 -180 -219
-308 -375 -377 -48 -21 -44 -20 -158 -47 -44 -11 -73 -20 -65 -21 8 -1 24 -4
35 -6 11 -3 31 -7 45 -9 42 -7 161 -54 207 -81 51 -30 151 -109 174 -139 9
-11 26 -31 38 -45 69 -83 137 -221 176 -361 19 -67 21 -78 36 -180 6 -44 13
-78 15 -77 2 2 5 28 8 58 3 30 7 64 10 75 28 124 42 172 73 250 19 49 44 102
54 117 11 14 19 29 19 32 0 11 75 109 112 146 65 65 98 90 170 128 62 33 153
70 153 63 0 -1 12 2 26 7 14 6 43 13 64 16 55 9 54 13 -7 21 -174 24 -358 136
-476 290 -43 57 -131 229 -137 270 -1 6 -9 35 -19 66 -9 31 -19 66 -21 78 -3
11 -7 31 -10 44 -3 12 -8 44 -11 72 -5 50 -13 71 -15 44z"/>
<path d="M4709 7819 c0 -24 -2 -51 -3 -59 -2 -8 -6 -46 -10 -85 -4 -38 -11
-97 -16 -130 -5 -33 -12 -80 -15 -105 -3 -25 -8 -52 -10 -60 -3 -8 -7 -32 -9
-53 -3 -21 -7 -41 -10 -45 -2 -4 -7 -29 -10 -56 -4 -27 -9 -53 -12 -58 -5 -8
-10 -28 -20 -78 -3 -14 -8 -34 -11 -45 -4 -11 -8 -23 -9 -27 -1 -5 -2 -9 -4
-10 -1 -2 -4 -15 -6 -31 -3 -15 -23 -80 -45 -145 -22 -64 -41 -122 -43 -129
-1 -7 -5 -16 -9 -19 -4 -4 -7 -13 -7 -20 0 -8 -19 -57 -41 -111 -23 -54 -46
-110 -53 -125 -6 -16 -14 -28 -18 -28 -5 0 -8 -7 -8 -15 0 -32 -149 -290 -246
-425 -37 -52 -70 -97 -73 -100 -3 -3 -24 -27 -46 -55 -61 -77 -315 -325 -332
-325 -2 0 -13 -9 -25 -19 -30 -29 -204 -143 -273 -181 -33 -18 -64 -35 -70
-39 -5 -3 -12 -6 -15 -7 -3 0 -39 -16 -80 -36 -77 -36 -296 -116 -340 -124
-14 -3 -38 -9 -55 -14 -53 -17 -215 -49 -280 -56 -22 -2 -49 -6 -60 -8 -11 -3
-33 -5 -49 -5 -46 -1 -27 -9 39 -15 82 -9 103 -12 166 -25 30 -6 72 -14 94
-17 22 -3 48 -10 57 -15 9 -5 21 -8 25 -7 23 5 231 -64 373 -125 14 -6 27 -11
30 -12 5 -1 149 -75 190 -97 77 -42 244 -159 324 -227 130 -111 396 -406 396
-439 0 -6 4 -12 8 -14 14 -6 100 -136 161 -246 93 -167 180 -369 250 -579 43
-131 58 -182 74 -258 2 -5 6 -16 11 -23 4 -7 6 -16 3 -19 -3 -3 -2 -15 3 -28
8 -21 36 -145 46 -205 2 -14 6 -34 9 -46 6 -27 25 -154 31 -214 3 -25 7 -58
10 -75 6 -38 12 -107 13 -164 1 -63 11 -46 16 30 6 89 15 178 21 214 3 17 7
46 9 65 2 19 6 44 8 55 3 11 8 43 12 70 5 28 9 52 10 55 1 3 5 25 9 50 12 63
13 70 26 120 6 25 13 56 16 70 2 14 22 86 44 160 43 144 44 147 53 170 24 63
49 137 50 148 0 6 4 12 9 12 4 0 8 10 8 23 0 13 5 28 12 35 6 6 13 17 14 24 2
13 58 141 74 168 5 8 25 47 45 87 41 82 155 266 167 271 4 2 8 8 8 13 0 6 5
15 10 22 6 7 31 39 55 72 126 166 314 354 460 460 22 16 43 33 46 38 3 5 9 7
12 5 3 -1 17 7 31 19 14 13 26 20 26 18 0 -3 6 -1 13 5 21 18 80 54 127 78 25
12 52 27 60 32 51 31 281 125 332 135 9 2 25 8 35 13 15 8 77 25 133 37 8 2
35 8 60 15 25 6 59 13 75 15 17 2 40 6 52 9 11 2 43 8 70 12 26 5 51 9 56 10
4 1 21 2 39 3 57 2 28 11 -82 26 -39 5 -103 16 -177 31 -13 2 -34 6 -48 8 -13
3 -28 7 -33 10 -5 3 -20 7 -35 10 -15 4 -39 8 -54 11 -14 3 -36 11 -47 17 -12
6 -23 11 -26 10 -7 -3 -131 39 -155 51 -11 6 -22 12 -25 13 -3 1 -16 5 -30 10
-48 15 -247 121 -333 177 -204 133 -389 300 -532 480 -16 21 -35 44 -40 50
-28 32 -148 212 -198 297 -58 99 -149 280 -141 280 2 0 -2 10 -10 23 -26 40
-127 313 -118 321 3 3 0 6 -6 6 -7 0 -11 3 -11 8 1 4 0 9 -1 12 -1 3 -3 13 -5
22 -2 9 -10 39 -19 65 -9 26 -17 57 -19 68 -2 11 -7 27 -10 35 -4 8 -9 26 -12
40 -2 14 -14 66 -25 115 -29 125 -31 137 -35 160 -1 11 -8 52 -15 90 -6 39
-13 84 -15 100 -3 17 -7 50 -10 74 -12 88 -17 137 -19 193 -3 69 -16 90 -17
27z"/>
<path d="M7969 3304 c-1 -21 -2 -50 -4 -64 -12 -101 -18 -144 -32 -210 -8 -41
-17 -88 -20 -104 -3 -16 -9 -41 -15 -55 -5 -14 -12 -39 -15 -55 -11 -67 -115
-326 -160 -398 -13 -21 -23 -40 -23 -43 0 -6 -71 -117 -84 -131 -6 -7 -20 -24
-30 -39 -79 -108 -212 -230 -341 -313 -19 -11 -167 -84 -210 -103 -52 -23
-207 -66 -260 -73 -140 -19 -152 -24 -69 -31 76 -6 141 -21 269 -62 44 -14 84
-29 90 -34 5 -5 17 -9 26 -9 10 0 25 -7 33 -16 9 -8 16 -13 16 -10 0 10 149
-82 208 -128 93 -73 190 -171 242 -246 14 -19 28 -37 31 -40 15 -13 87 -135
131 -224 46 -91 111 -254 123 -308 2 -13 16 -65 29 -116 23 -87 30 -119 41
-202 3 -19 7 -46 10 -60 3 -14 8 -52 10 -84 6 -65 14 -87 16 -40 1 16 2 40 4
54 2 14 6 45 9 70 7 63 16 118 27 165 5 22 12 54 15 70 17 97 120 390 166 470
6 11 26 45 43 76 48 83 99 159 107 159 5 0 8 5 8 11 0 18 144 169 220 230 117
94 259 170 414 220 69 22 80 25 206 49 52 10 86 19 75 20 -41 5 -61 8 -90 14
-16 3 -43 8 -60 11 -16 3 -68 18 -115 32 -47 15 -87 27 -90 27 -15 2 -239 119
-260 136 -14 11 -52 41 -85 67 -93 73 -177 164 -245 263 -25 36 -47 67 -50 70
-17 17 -111 207 -160 325 -10 23 -48 143 -55 171 -3 10 -15 62 -29 114 -21 84
-27 118 -42 235 -3 17 -7 62 -10 100 -7 79 -14 97 -15 39z"/>
<path d="M2581 3008 c-12 -85 -15 -95 -51 -208 -43 -131 -123 -272 -205 -356
-44 -44 -128 -114 -139 -114 -3 0 -24 -11 -46 -25 -22 -14 -40 -23 -40 -21 0
3 -20 -4 -45 -15 -25 -11 -56 -22 -68 -25 -82 -17 -113 -22 -122 -17 -5 4 -6
2 -2 -3 5 -5 36 -14 70 -22 34 -7 69 -15 78 -17 75 -17 221 -103 296 -175 52
-49 113 -128 113 -146 0 -8 4 -14 9 -14 12 0 117 -223 112 -237 -1 -2 -1 -4 0
-5 0 -2 2 -10 4 -18 2 -8 10 -42 19 -75 15 -61 24 -105 25 -137 2 -38 19 -15
26 35 9 68 10 71 29 142 9 33 18 67 21 76 8 36 68 166 101 220 37 61 77 110
134 166 61 58 66 63 78 63 7 0 12 4 12 8 0 16 169 92 241 108 13 3 31 7 39 9
8 2 25 4 38 4 34 1 26 17 -10 19 -49 4 -67 7 -74 15 -4 4 -15 7 -24 7 -24 0
-115 39 -183 78 -56 33 -159 126 -205 187 -24 31 -65 96 -67 105 0 3 -10 23
-21 45 -25 48 -72 172 -77 200 -1 11 -5 25 -9 30 -3 6 -9 35 -14 65 -4 30 -9
58 -10 63 -1 4 -2 21 -3 37 -2 57 -18 30 -30 -52z"/>
<path d="M2593 1330 c1 -21 10 -18 13 5 1 8 -2 15 -6 15 -5 0 -8 -9 -7 -20z"/>
</g>
</svg>
